<?xml version="1.0" encoding="UTF-8"?>
<svg id="Layer_1" xmlns="http://www.w3.org/2000/svg" version="1.1" viewBox="0 0 128 128">
  <!-- Generator: Adobe Illustrator 29.0.1, SVG Export Plug-In . SVG Version: 2.1.0 Build 192)  -->
  <defs>
    <style>
      .st0 {
        fill: #0d0d3f;
        stroke: #0d0d3f;
        stroke-linecap: round;
        stroke-linejoin: round;
        stroke-width: 4px;
      }
    </style>
  </defs>
  <path class="st0" d="M66.1,49.1H18.9c-2.1,0-2.8-2.9-.9-3.8l41.7-19.7c2.2-1,4.7-1,6.8,0l41.7,19.7c1.9.9,1.3,3.8-.9,3.8h-6.4"/>
  <line class="st0" x1="25" y1="92" x2="25" y2="50"/>
  <line class="st0" x1="101" y1="50" x2="101" y2="92"/>
  <path class="st0" d="M107.7,105H18.7c-2.1,0-3.6-2.2-2.8-4.2l2.5-6c.5-1.1,1.6-1.8,2.8-1.8h84c1.2,0,2.3.7,2.8,1.8l2.5,6c.8,2-.6,4.2-2.8,4.2Z"/>
  <path class="st0" d="M37,92.1v-29c0-3.3,2.7-6,6-6h0c3.3,0,6,2.7,6,6v29"/>
  <path class="st0" d="M77,92.1v-29c0-3.3,2.7-6,6-6h0c3.3,0,6,2.7,6,6v29"/>
  <path class="st0" d="M57,92.1v-29c0-3.3,2.7-6,6-6h0c3.3,0,6,2.7,6,6v29"/>
</svg>