<?xml version="1.0" encoding="UTF-8"?>
<svg id="Layer_1" xmlns="http://www.w3.org/2000/svg" version="1.1" viewBox="0 0 24 24">
  <!-- Generator: Adobe Illustrator 29.0.1, SVG Export Plug-In . SVG Version: 2.1.0 Build 192)  -->
  <defs>
    <style>
      .st0 {
        fill: #0d0d3f;
      }
    </style>
  </defs>
  <g id="_x30_1">
    <g>
      <path class="st0" d="M21.8,6.4c-.5-2-2-3.6-4-4.2-1.9-.6-3.8-.2-5.3.9-.1,0-.3-.1-.5-.1h-1c-3.9,0-7,3.1-7,7v1.6l-1.7,1.7c-.2.2-.3.5-.3.9,0,.3.3.6.5.7l1.4.7v1.4c0,1.7,1.3,3,3,3h1.6l1.7,1.7c.2.2.4.3.7.3h5c.6,0,1-.4,1-1v-3.2c1.2-.4,2-1.6,2-2.9v-.6c0-.6.3-1.2.8-1.6,1.8-1.5,2.6-3.9,2-6.2ZM15,20h-3.6l-1.7-1.7c-.2-.2-.4-.3-.7-.3h-2c-.6,0-1-.4-1-1v-2c0-.4-.2-.7-.6-.9l-.8-.4,1-1c.2-.2.3-.4.3-.7v-2c0-2.7,2.1-4.9,4.8-5,0,0,0,0,0,.1,0,0,0,.2-.1.3,0,.2-.2.4-.2.5,0,0,0,.2-.1.3,0,.2-.1.4-.1.6,0,0,0,.2,0,.3,0,.3,0,.6,0,.9,0,1.3.4,2.6,1.2,3.6.3.4.7.8,1,1.1.5.4.8,1,.8,1.6v.8c0,.2,0,.5,0,.7.1.5.4,1,.8,1.4.2.2.3.3.5.4,0,0,.1,0,.2.1.1,0,.2.1.4.2,0,0,0,0,0,0v2.2ZM17,15c0,.5-.4,1-.9,1-.1,0-.2,0-.3,0,0,0-.1,0-.2,0-.1,0-.2-.1-.4-.2-.2-.2-.3-.4-.3-.7h2ZM18.5,11.1c-.6.5-1.1,1.2-1.3,1.9h-2.5c-.2-.7-.7-1.4-1.3-1.9-.3-.2-.5-.5-.7-.7-.5-.7-.8-1.5-.8-2.4s.3-1.7.8-2.4c.8-1,2-1.6,3.2-1.6s.8,0,1.2.2c1.3.4,2.3,1.5,2.6,2.7h0c.4,1.6-.1,3.2-1.3,4.2Z"/>
      <path class="st0" d="M16,5c-1.7,0-3,1.3-3,3s.4,1,1,1,1-.4,1-1,.4-1,1-1,1,.4,1,1,.4,1,1,1,1-.4,1-1c0-1.7-1.3-3-3-3Z"/>
    </g>
  </g>
</svg>